:SAMPLES-PER-SECOND 30
:FULLY-SPECIFIED
:DEGREES
283
root  62.6935 26.4213 -23.9149 -157.172 3.65434 172.549
RightUpLeg  -58.7337 5.45109 -31.2948
RightLeg  71.2959 4.55784 10.7452
RightFoot  -27.9968 -1.04922 -3.82948
RightToes  -57.8038 -0.37393 -0.392164
Spine  19.9626 0.220124 6.47298
Spine1  33.1931 2.71666 6.95286
HEad  5.79643 2.79566 -6.40982
LeftShoulder1  0 -2.42657e-020 -4.95415e-022
LeftArm  -14.5605 -32.3398 -91.1109
LeftForeArm  41.2305 -30.6958 -5.99049
LeftHand  -0.252967 -10.0211 2.51648
RightShoulder  0 2.42657e-020 1.07489e-018
RightArm  -52.3707 43.8226 45.154
RightForeArm  74.1832 32.0467 6.24685
RightHand  -7.85414 21.5751 -39.2676
LeftUpLeg  -72.5608 -8.19272 24.5959
LeftLeg  60.4933 5.19509 7.87086
LeftFoot  -19.742 -0.851151 -4.88863
LeftToes  -11.6414 2.37847e-007 4.89147e-008
284
root  62.063 25.5507 -24.6203 -156.632 4.10628 173.164
RightUpLeg  -59.0882 5.52453 -32.511
RightLeg  73.6743 4.04983 10.7675
RightFoot  -31.4159 -1.2981 -4.23593
RightToes  -57.684 -0.372813 -0.394204
Spine  20.3692 1.28574 7.29655
Spine1  34.1539 5.89461 7.02704
HEad  6.17421 1.85501 -6.56954
LeftShoulder1  0 -2.42657e-020 -4.95415e-022
LeftArm  -12.4116 -33.6244 -91.973
LeftForeArm  39.723 -31.9592 -6.30011
LeftHand  -0.405581 -9.56238 4.47943
RightShoulder  0 2.42657e-020 1.07489e-018
RightArm  -65.2994 49.0259 36.5171
RightForeArm  64.8199 17.3566 3.09856
RightHand  -5.13021 20.7357 -27.1562
LeftUpLeg  -75.9982 -5.544 25.4852
LeftLeg  61.8849 6.37616 10.145
LeftFoot  -18.5264 -0.954523 -5.84756
LeftToes  -12.6712 2.37847e-007 4.89147e-008
285
root  61.1813 25.1688 -25.5482 -156.506 5.31371 175.178
RightUpLeg  -57.5575 6.75032 -32.5378
RightLeg  72.6392 4.14803 10.4544
RightFoot  -32.8263 -1.40967 -4.4056
RightToes  -58.2787 -0.378368 -0.396391
Spine  20.5393 2.25416 8.60536
Spine1  34.9077 7.81315 8.86943
HEad  6.57071 1.40632 -6.97532
LeftShoulder1  0 -2.42657e-020 -4.95415e-022
LeftArm  -11.3295 -33.261 -94.2426
LeftForeArm  37.3418 -32.7114 -6.49021
LeftHand  -0.406505 -8.73373 4.95341
RightShoulder  0 2.42657e-020 1.07489e-018
RightArm  -102.844 49.7572 27.1912
RightForeArm  55.0625 4.37552 0.744601
RightHand  -3.14555 17.0451 -20.4033
LeftUpLeg  -76.55 -2.16756 24.7823
LeftLeg  64.8897 5.37662 9.66338
LeftFoot  -17.2338 -0.845759 -5.5769
LeftToes  -16.702 2.37847e-007 4.89147e-008
286
root  59.928 25.3724 -26.7292 -156.771 7.2234 176.544
RightUpLeg  -53.9015 8.31056 -33.4531
RightLeg  68.1027 4.85928 9.89493
RightFoot  -31.8724 -1.33685 -4.30197
RightToes  -59.6263 -0.391022 -0.398574
Spine  19.8577 2.70986 9.011
Spine1  34.0341 7.85621 10.6357
HEad  7.22358 1.38982 -6.81771
LeftShoulder1  0 -2.42657e-020 -4.95415e-022
LeftArm  -11.0028 -30.4085 -95.775
LeftForeArm  34.2671 -33.3576 -6.65675
LeftHand  -0.308507 -8.27074 3.8983
RightShoulder  0 2.42657e-020 1.07489e-018
RightArm  -112.01 45.2382 30.5825
RightForeArm  37.6699 8.28602 1.46502
RightHand  -1.61641 16.705 -10.6105
LeftUpLeg  -73.7338 0.923182 21.6367
LeftLeg  65.7656 3.88924 7.28215
LeftFoot  -16.1611 -0.646577 -4.55184
LeftToes  -28.0561 2.37847e-007 4.89147e-008
287
root  58.5353 25.8176 -28.2329 -158.315 7.84465 177.06
RightUpLeg  -47.2011 10.1885 -34.1253
RightLeg  62.4446 4.50843 7.2855
RightFoot  -29.4434 -0.856343 -2.88086
RightToes  -60.9538 -0.403568 -0.4006
Spine  18.8852 2.23946 9.37736
Spine1  32.8943 6.63203 11.5207
HEad  9.26266 2.20101 -7.00919
LeftShoulder1  0 -2.42657e-020 -4.95415e-022
LeftArm  -10.0543 -26.0771 -96.0732
LeftForeArm  32.079 -34.3187 -6.9065
LeftHand  -0.34768 -7.96079 4.62754
RightShoulder  0 2.42657e-020 1.07489e-018
RightArm  -102.337 40.0701 32.577
RightForeArm  34.4592 11.675 2.08191
RightHand  -0.331459 21.8627 -1.34643
LeftUpLeg  -70.4321 4.02271 16.6788
LeftLeg  65.4515 0.287287 0.522086
LeftFoot  -8.9873 -0.162538 -2.06796
LeftToes  -41.1797 2.37847e-007 4.89147e-008
288
root  57.0606 26.4116 -29.8682 -161.461 6.21432 176.276
RightUpLeg  -39.2479 9.99324 -33.5193
RightLeg  61.0207 1.1531 1.70431
RightFoot  -21.9942 0.0465017 0.616863
RightToes  -61.6674 -0.410344 -0.402283
Spine  18.0793 0.844406 9.38827
Spine1  31.9476 3.81589 11.7067
HEad  11.8071 2.55025 -7.02383
LeftShoulder1  0 -2.42657e-020 -4.95415e-022
LeftArm  -8.45239 -22.6723 -95.0777
LeftForeArm  33.1882 -34.6981 -7.00527
LeftHand  -0.392655 -8.33783 5.01722
RightShoulder  0 2.42657e-020 1.07489e-018
RightArm  -88.6247 33.9267 35.578
RightForeArm  26.9999 17.9715 3.2741
RightHand  0.904349 23.6964 4.68004
LeftUpLeg  -66.4347 3.64412 11.2607
LeftLeg  66.1308 -4.23902 -8.07753
LeftFoot  -7.02772 -0.0281991 -0.459235
LeftToes  -37.0904 2.37847e-007 4.89147e-008
289
root  55.6163 27.1734 -31.4464 -164.63 6.04836 175.439
RightUpLeg  -37.2067 9.87947 -32.3524
RightLeg  67.2459 -2.51361 -5.17811
RightFoot  -9.52207 0.181883 2.56127
RightToes  -51.9413 -0.320191 -0.372186
Spine  17.3653 0.0012872 8.70958
Spine1  31.1027 1.91943 11.0021
HEad  14.9927 3.20069 -7.6698
LeftShoulder1  0 -2.42657e-020 -4.95415e-022
LeftArm  -8.91029 -19.3914 -93.8718
LeftForeArm  35.8165 -35.0366 -7.09266
LeftHand  -0.359226 -9.13632 4.12689
RightShoulder  0 2.42657e-020 1.07489e-018
RightArm  -82.171 29.2172 38.7747
RightForeArm  24.3007 24.0376 4.50594
RightHand  0.759044 24.5265 3.862
LeftUpLeg  -60.104 1.81443 7.43915
LeftLeg  65.1732 -4.27182 -7.82161
LeftFoot  -9.57268 0.0252408 0.301437
LeftToes  -34.7019 2.37847e-007 4.89147e-008
290
root  54.4274 28.0636 -32.8707 -166.21 6.53221 175.39
RightUpLeg  -40.2415 11.1863 -29.4455
RightLeg  75.9175 0.41452 1.03009
RightFoot  -5.97357 0.0462608 1.2643
RightToes  -36.2508 -0.189247 -0.292979
Spine  16.0593 -0.461487 7.81668
Spine1  29.4259 1.02265 9.2
HEad  18.1067 6.13687 -8.35315
LeftShoulder1  0 -2.42657e-020 -4.95415e-022
LeftArm  -10.7223 -14.3004 -91.4286
LeftForeArm  35.0635 -37.0086 -7.6314
LeftHand  -0.318606 -8.88658 3.73136
RightShoulder  0 2.42657e-020 1.07489e-018
RightArm  -77.5475 25.7622 44.4208
RightForeArm  23.779 30.7559 6.02049
RightHand  0.673881 23.8848 3.55625
LeftUpLeg  -54.593 -0.0576923 5.01818
LeftLeg  62.8128 -3.65355 -6.09663
LeftFoot  -10.8921 0.051884 0.544193
LeftToes  -31.3199 2.37847e-007 4.89147e-008
291
root  53.3337 28.9512 -34.2568 -167.94 5.6398 174.752
RightUpLeg  -42.032 9.10749 -24.5273
RightLeg  80.8083 3.24458 13.5295
RightFoot  -5.9497 -0.0390775 -0.374443
RightToes  -48.0923 -0.286136 -0.356126
Spine  15.1215 -1.52551 7.0509
Spine1  28.4527 -0.833607 6.77938
HEad  20.0264 10.0886 -9.36498
LeftShoulder1  0 -2.42657e-020 -4.95415e-022
LeftArm  -14.1227 -9.34513 -89.199
LeftForeArm  33.5693 -39.4737 -8.3475
LeftHand  -0.298051 -8.59698 3.59671
RightShoulder  0 2.42657e-020 1.07489e-018
RightArm  -71.2391 23.6755 49.548
RightForeArm  25.3847 36.9593 7.62682
RightHand  -0.0978416 24.0247 -0.0898319
LeftUpLeg  -48.7242 -3.10336 2.3253
LeftLeg  59.1957 -3.09275 -4.50109
LeftFoot  -11.2492 0.0589905 0.598971
LeftToes  -28.4657 2.37847e-007 4.89147e-008
292
root  52.2588 29.8359 -35.4624 -168.363 5.55396 174.511
RightUpLeg  -45.1643 4.84746 -17.9792
RightLeg  80.3329 2.1656 8.6694
RightFoot  -7.55207 -0.0552531 -0.459649
RightToes  -46.6888 -0.273998 -0.349706
Spine  14.5319 -2.19193 6.68962
Spine1  27.9159 -1.99941 5.11549
HEad  20.0033 13.1757 -11.8842
LeftShoulder1  0 -2.42657e-020 -4.95415e-022
LeftArm  -17.3815 -5.18519 -88.2736
LeftForeArm  32.4061 -41.4555 -8.96221
LeftHand  -0.286149 -8.51583 3.47485
RightShoulder  0 2.42657e-020 1.07489e-018
RightArm  -64.608 22.7855 51.4991
RightForeArm  32.538 42.0646 9.1634
RightHand  -1.83141 23.261 -8.51309
LeftUpLeg  -43.8856 -4.12711 -0.191226
LeftLeg  54.7996 -3.22625 -4.00101
LeftFoot  -10.9462 0.0685284 0.715193
LeftToes  -25.8405 2.37847e-007 4.89147e-008
293
root  51.208 30.6045 -36.5152 -167.891 6.70679 174.296
RightUpLeg  -48.7716 1.79793 -11.9862
RightLeg  75.0297 0.556705 1.40333
RightFoot  -9.4208 -0.0196153 0.139504
RightToes  -39.9839 -0.218355 -0.315032
Spine  14.1551 -2.31614 6.34274
Spine1  27.3612 -2.353 4.24764
HEad  19.3647 15.0348 -13.7497
LeftShoulder1  0 -2.42657e-020 -4.95415e-022
LeftArm  -19.2868 -2.83914 -87.8144
LeftForeArm  31.5773 -41.633 -9.01959
LeftHand  -0.249322 -8.47067 2.99822
RightShoulder  0 2.42657e-020 1.07489e-018
RightArm  -59.389 23.0631 51.5791
RightForeArm  44.4919 46.0253 10.5323
RightHand  -4.2232 23.2383 -19.9674
LeftUpLeg  -40.0758 -2.38166 -2.88717
LeftLeg  50.3287 -4.44553 -4.70096
LeftFoot  -10.619 0.0965945 1.03935
LeftToes  -22.4976 2.37847e-007 4.89147e-008
